<svg xmlns="http://www.w3.org/2000/svg" width="42.161" height="43.186" viewBox="0 0 42.161 43.186"><g transform="translate(-106.601 -26.566)"><g transform="translate(121.025 25.099) rotate(45)"><line x2="25.292" transform="translate(8.366 10.875)" fill="none" stroke="#f8f8f8" stroke-width="5"/><line y2="22.475" transform="translate(33.658 0)" fill="none" stroke="#f8f8f8" stroke-linecap="round" stroke-width="3"/><line y2="22.475" transform="translate(8.366)" fill="none" stroke="#f8f8f8" stroke-linecap="round" stroke-width="3"/><line y2="16.675" transform="translate(37.842 3.625)" fill="none" stroke="#f8f8f8" stroke-linecap="round" stroke-width="3"/><line y2="12.325" transform="translate(42.025 5.8)" fill="none" stroke="#f8f8f8" stroke-linecap="round" stroke-width="3"/><line y2="16.675" transform="translate(4.183 2.9)" fill="none" stroke="#f8f8f8" stroke-linecap="round" stroke-width="3"/><line y2="12.325" transform="translate(0 5.075)" fill="none" stroke="#f8f8f8" stroke-linecap="round" stroke-width="3"/></g><g transform="translate(139.41 33.334) rotate(135)"><g transform="translate(-4.163 -5.289)" fill="#f8f8f8" stroke="#f8f8f8" stroke-width="1"><path d="M3,0H4A0,0,0,0,1,4,0V6A0,0,0,0,1,4,6H3A3,3,0,0,1,0,3V3A3,3,0,0,1,3,0Z" stroke="none"/><path d="M3,.5h.222A.278.278,0,0,1,3.5.778V5.222a.278.278,0,0,1-.278.278H3A2.5,2.5,0,0,1,.5,3V3A2.5,2.5,0,0,1,3,.5Z" fill="none"/></g><g transform="translate(42.051 -5.289) rotate(90)" fill="#f8f8f8"><path d="M 5.14263916015625 4.802539825439453 L 0.8573606610298157 4.802539825439453 L 3 1.015396356582642 L 5.14263916015625 4.802539825439453 Z" stroke="none"/><path d="M 3 2.030792713165283 L 1.714721202850342 4.302539825439453 L 4.285278797149658 4.302539825439453 L 3 2.030792713165283 M 3 0 L 6 5.302539825439453 L 0 5.302539825439453 L 3 0 Z" stroke="none" fill="#f8f8f8"/></g><rect width="34.912" height="6" transform="translate(0.837 -5.289)" fill="#f8f8f8"/><rect width="22" height="1" transform="translate(7.204 -1.46)" fill="#272727"/></g></g></svg>